<svg version="1.2" xmlns="http://www.w3.org/2000/svg" viewBox="0 0 62 214" width="62" height="214">
	<title>image</title>
	<style>
		.s0 { fill: #ffffff } 
	</style>
	<path id="Layer" class="s0" d="m8.2 213.6c-0.4 0.4-1 0.4-1.4 0l-6.3-6.3c-0.4-0.4-0.4-1.1 0-1.5c0.3-0.4 1-0.4 1.4 0l5.6 5.7l5.7-5.7c0.4-0.4 1-0.4 1.4 0c0.4 0.4 0.4 1.1 0 1.5zm25.1-213.2c18.8 32 26.7 51.9 27.9 66.2c0.6 7.2-0.5 13-2.8 18.1c-2.2 5.2-5.6 9.6-9.6 14.2c-7.8 9.1-17.8 18.8-26 35.6c-8.1 16.8-14.3 40.8-14.3 78.3h-2c0-37.8 6.3-62 14.5-79.2c8.3-17.1 18.6-27 26.3-36c3.9-4.5 7.2-8.8 9.3-13.7c2.1-4.8 3.2-10.2 2.6-17.1c-1.2-13.8-8.9-33.4-27.6-65.3z" />
</svg>