<svg version="1.2" xmlns="http://www.w3.org/2000/svg" viewBox="0 0 33 33" width="33" height="33">
	<title>image</title>
	<style>
		.s0 { fill: #ffffff } 
	</style>
	<path id="Layer" fill-rule="evenodd" class="s0" d="m22.7 6.6h3.2v26.3h-19.2v-26.3h3.2v-1.9c0-1 0.3-2 0.9-2.7c0.6-0.7 1.4-1.1 2.3-1.1h6.4c0.8 0 1.6 0.4 2.2 1.1c0.6 0.7 1 1.7 1 2.7zm4.8 0h1.6c0.8 0 1.6 0.4 2.2 1.1c0.6 0.7 1 1.7 1 2.7v18.8c0 1-0.4 1.9-1 2.6c-0.6 0.8-1.4 1.1-2.2 1.1h-1.6zm-22.4 0v26.4h-1.6c-0.9 0-1.7-0.4-2.3-1.1c-0.6-0.7-0.9-1.7-0.9-2.7v-18.8c0-2.1 1.4-3.8 3.2-3.8zm8-1.8v1.8h6.4v-1.8z" />
</svg>