<?xml version="1.0" encoding="iso-8859-1"?>
<!-- Generator: Adobe Illustrator 19.0.0, SVG Export Plug-In . SVG Version: 6.00 Build 0)  -->
<svg version="1.1" id="Layer_1" xmlns="http://www.w3.org/2000/svg" xmlns:xlink="http://www.w3.org/1999/xlink" x="0px" y="0px"
	 viewBox="0 0 512 512" style="enable-background:new 0 0 512 512;" xml:space="preserve">
<g>
	<circle style="fill:#36A1CB;" cx="195.184" cy="316.813" r="14.688"/>
	<path style="fill:#36A1CB;" d="M342.887,291.811H329.19c-1.292-6.984-3.124-13.782-5.438-20.345l11.85-6.844
		c3.886-2.247,5.221-7.219,2.975-11.109l-16.875-29.23c-2.244-3.887-7.219-5.219-11.108-2.976l-11.878,6.858
		c-4.572-5.331-9.549-10.311-14.885-14.882l6.856-11.879c2.246-3.889,0.914-8.862-2.975-11.107l-29.229-16.875
		c-3.89-2.246-8.861-0.913-11.108,2.976l-6.845,11.849c-6.564-2.315-13.36-4.147-20.345-5.439V169.11
		c0-4.492-3.64-8.132-8.131-8.132h-33.751c-4.49,0-8.131,3.64-8.131,8.132v13.697c-6.985,1.292-13.779,3.123-20.347,5.439
		l-6.842-11.849c-2.244-3.888-7.219-5.222-11.108-2.976l-29.229,16.875c-3.889,2.244-5.221,7.216-2.977,11.107l6.859,11.879
		c-5.334,4.57-10.311,9.55-14.882,14.882l-11.879-6.858c-3.888-2.243-8.861-0.912-11.108,2.976l-16.873,29.23
		c-2.246,3.889-0.914,8.863,2.973,11.109l11.852,6.844c-2.315,6.563-4.148,13.36-5.44,20.345H47.476c-4.49,0-8.131,3.64-8.131,8.132
		v33.751c0,4.493,3.64,8.132,8.131,8.132h13.697c1.292,6.985,3.124,13.782,5.44,20.348l-11.852,6.842
		c-3.886,2.244-5.219,7.219-2.973,11.107l16.873,29.23c2.246,3.889,7.219,5.221,11.108,2.977l11.879-6.86
		c4.57,5.333,9.547,10.312,14.88,14.885l-6.856,11.88c-2.242,3.887-0.912,8.86,2.977,11.106l29.229,16.875
		c3.888,2.245,8.863,0.914,11.108-2.976l6.841-11.852c6.569,2.313,13.362,4.146,20.347,5.44v13.697c0,4.488,3.64,8.131,8.131,8.131
		h33.753c4.49,0,8.131-3.642,8.131-8.131v-13.697c6.985-1.295,13.781-3.126,20.347-5.44l6.842,11.849
		c2.246,3.889,7.216,5.221,11.108,2.976l29.229-16.875c3.888-2.245,5.221-7.218,2.975-11.105l-6.854-11.881
		c5.332-4.571,10.31-9.55,14.882-14.885l11.878,6.86c3.888,2.244,8.863,0.913,11.108-2.977l16.875-29.23
		c2.246-3.887,0.912-8.862-2.975-11.107l-11.85-6.842c2.314-6.566,4.146-13.363,5.438-20.348h13.697c4.49,0,8.131-3.639,8.131-8.132
		v-33.751C351.017,295.451,347.377,291.811,342.887,291.811z M195.368,382.03c-36.017,0.102-65.294-29.011-65.398-65.026
		c-0.102-36.017,29.01-65.295,65.027-65.399c36.014-0.102,65.294,29.011,65.398,65.027
		C260.497,352.648,231.382,381.928,195.368,382.03z"/>
</g>
<path style="fill:#8BD8F7;" d="M195.182,216.574c-55.364,0-100.244,44.881-100.244,100.244s44.88,100.244,100.244,100.244
	c26.446,0,50.503-10.242,68.417-26.976l17.429-21.477c9.138-15.115,14.397-32.839,14.397-51.79
	C295.426,261.455,250.544,216.574,195.182,216.574z M195.368,382.03c-36.017,0.102-65.294-29.011-65.398-65.026
	c-0.102-36.017,29.01-65.295,65.027-65.399c36.014-0.102,65.294,29.011,65.398,65.027
	C260.497,352.648,231.382,381.928,195.368,382.03z"/>
<path style="fill:#FFB92E;" d="M457.028,8.085c-25.896,0-46.888,20.994-46.888,46.888c0,25.896,20.992,46.888,46.888,46.888
	c25.894,0,46.888-20.992,46.888-46.888C503.916,29.079,482.922,8.085,457.028,8.085z M455.791,69.662
	c-8.111,0-14.688-6.577-14.688-14.688s6.577-14.688,14.688-14.688s14.688,6.576,14.688,14.688S463.903,69.662,455.791,69.662z"/>
<g style="opacity:0.15;">
	<path style="fill:#F5F5F5;" d="M342.887,290.123H329.19c-1.292-6.984-3.124-13.782-5.438-20.345l11.85-6.844
		c3.886-2.247,5.221-7.219,2.975-11.109l-16.875-29.23c-2.244-3.887-7.219-5.219-11.108-2.976l-11.878,6.858
		c-4.572-5.331-9.549-10.311-14.885-14.882l6.856-11.879c2.246-3.889,0.914-8.862-2.975-11.107l-29.229-16.875
		c-3.89-2.246-8.861-0.913-11.108,2.976l-6.845,11.849c-6.564-2.315-13.36-4.147-20.345-5.439v-13.697
		c0-4.492-3.64-8.132-8.131-8.132h-33.751c-4.49,0-8.131,3.64-8.131,8.132v13.697c-6.062,1.122-11.969,2.672-17.719,4.569
		c-9.909,21.021-15.459,44.502-15.459,69.282c0,9.101,0.759,18.023,2.196,26.718c11.356-18.974,32.08-31.705,55.806-31.773
		c36.014-0.102,65.294,29.011,65.398,65.027c0.101,35.814-28.688,64.954-64.423,65.381c24.772,20.522,55.731,33.831,89.661,36.736
		c4.65-4.13,9.034-8.558,13.085-13.281l11.878,6.86c3.888,2.244,8.863,0.913,11.108-2.977l16.875-29.23
		c2.246-3.888,0.912-8.862-2.975-11.107l-11.85-6.842c2.314-6.567,4.146-13.363,5.438-20.348h13.697c4.49,0,8.131-3.639,8.131-8.132
		v-33.75C351.017,293.763,347.377,290.123,342.887,290.123z"/>
</g>
<path style="fill:#EF9A1D;" d="M439.035,54.973c0-22.187,15.416-40.763,36.119-45.631c-3.459-0.813-7.06-1.257-10.767-1.257
	c-25.896,0-46.888,20.994-46.888,46.888c0,25.896,20.992,46.888,46.888,46.888c3.708,0,7.308-0.444,10.767-1.257
	C454.45,95.737,439.035,77.163,439.035,54.973z"/>
<g>
	<path style="fill:#231F20;" d="M506.045,79.811C509.843,72.345,512,63.909,512,54.973c0-30.311-24.661-54.972-54.972-54.972
		c-9.476,0-18.398,2.41-26.189,6.65L141.706,129.228c-15.503,4.417-30.223,10.71-43.901,18.612c-0.656,0.279-1.25,0.641-1.789,1.06
		C38.593,182.895,0,245.47,0,316.9c0,107.579,87.521,195.099,195.1,195.099c87.147,0,161.126-57.439,186.084-136.445
		c0,0,0,0,0.001-0.001L506.045,79.811z M495.832,54.973c0,21.397-17.407,38.804-38.804,38.804s-38.804-17.407-38.804-38.804
		s17.407-38.804,38.804-38.804S495.832,33.576,495.832,54.973z M195.1,495.831c-98.664,0-178.932-80.268-178.932-178.931
		c0-65.861,35.774-123.517,88.907-154.579l41.935-17.779c15.308-4.276,31.436-6.572,48.089-6.572
		c28.53,0,55.794,6.513,81.035,19.357c3.979,2.026,8.846,0.441,10.872-3.539c2.024-3.978,0.44-8.846-3.539-10.872
		c-25.945-13.202-53.843-20.266-83-21.038l205.447-87.1c-2.481,6.256-3.86,13.066-3.86,20.195c0,30.311,24.661,54.972,54.972,54.972
		c7.211,0,14.094-1.41,20.41-3.945l-87.302,206.784c-1.307-61.675-31.906-119.464-82.448-155.236
		c-3.646-2.58-8.69-1.715-11.269,1.928c-2.579,3.644-1.716,8.69,1.928,11.269c47.391,33.541,75.683,88.178,75.683,146.153
		C374.03,415.562,293.762,495.831,195.1,495.831z"/>
	<path style="fill:#231F20;" d="M342.887,283.727h-7.136c-0.673-2.864-1.434-5.714-2.282-8.537l6.181-3.57
		c7.738-4.474,10.397-14.41,5.928-22.148l-16.875-29.23c-2.888-5.001-8.272-8.107-14.051-8.107c-2.835,0-5.635,0.75-8.099,2.173
		l-6.205,3.582c-2.017-2.142-4.099-4.224-6.238-6.238l3.581-6.203c2.167-3.751,2.742-8.121,1.621-12.305
		c-1.121-4.184-3.804-7.681-7.555-9.845l-29.229-16.875c-2.463-1.422-5.264-2.175-8.1-2.175c-5.777,0-11.16,3.108-14.049,8.108
		l-3.568,6.175c-2.822-0.848-5.673-1.61-8.538-2.283v-7.136c0-8.941-7.274-16.216-16.215-16.216h-33.752
		c-8.941,0-16.215,7.275-16.215,16.216v7.136c-2.864,0.673-5.715,1.435-8.539,2.283l-3.565-6.174
		c-2.888-5.002-8.272-8.11-14.051-8.11c-2.837,0-5.637,0.752-8.1,2.175l-29.228,16.874c-7.742,4.469-10.406,14.404-5.937,22.151
		l3.583,6.205c-2.139,2.012-4.221,4.096-6.237,6.237l-6.209-3.583c-2.462-1.421-5.262-2.172-8.097-2.172
		c-5.777,0-11.16,3.105-14.051,8.107l-16.872,29.23c-4.47,7.742-1.812,17.68,5.932,22.153l6.176,3.567
		c-0.848,2.822-1.61,5.673-2.283,8.537h-7.136c-8.941,0-16.215,7.275-16.215,16.216v33.751c0,8.941,7.274,16.216,16.215,16.216
		h7.136c0.673,2.865,1.435,5.715,2.283,8.539l-6.177,3.567c-3.75,2.165-6.432,5.663-7.552,9.848
		c-1.121,4.185-0.544,8.555,1.621,12.302l16.873,29.231c2.889,5.001,8.273,8.108,14.051,8.108c2.835,0,5.635-0.751,8.099-2.174
		l6.206-3.583c2.014,2.14,4.097,4.223,6.236,6.238l-3.584,6.21c-4.466,7.742-1.802,17.676,5.938,22.145l29.229,16.875
		c2.463,1.422,5.264,2.174,8.101,2.174c5.78,0,11.164-3.108,14.049-8.108l3.567-6.175c2.824,0.848,5.675,1.611,8.538,2.284v7.137
		c0,8.941,7.274,16.215,16.215,16.215h33.753c8.941,0,16.215-7.274,16.215-16.215v-7.137c2.864-0.673,5.715-1.436,8.538-2.284
		l3.567,6.176c2.889,5.001,8.272,8.107,14.049,8.107c2.836,0,5.636-0.751,8.101-2.174l29.229-16.875
		c3.751-2.167,6.434-5.662,7.555-9.847c1.121-4.184,0.545-8.554-1.62-12.3l-3.582-6.209c2.14-2.014,4.222-4.097,6.238-6.238
		l6.206,3.584c2.463,1.421,5.263,2.173,8.099,2.173c5.78,0,11.165-3.109,14.05-8.109l16.874-29.228
		c2.168-3.75,2.743-8.121,1.621-12.306c-1.121-4.183-3.803-7.68-7.554-9.845l-6.176-3.567c0.848-2.824,1.611-5.675,2.283-8.539
		h7.136c8.941,0,16.215-7.275,16.215-16.216v-33.751C359.101,291.001,351.828,283.727,342.887,283.727z M342.887,333.74H329.19
		c-3.898,0-7.24,2.781-7.949,6.614c-1.194,6.457-2.915,12.895-5.112,19.133c-1.293,3.67,0.211,7.741,3.582,9.687l11.867,6.905
		l-16.939,29.249l-11.878-6.86c-3.37-1.946-7.648-1.215-10.181,1.739c-4.294,5.01-9.007,9.724-14.006,14.008
		c-2.952,2.533-3.684,6.808-1.74,10.177l6.84,11.944l-29.294,16.859l-6.842-11.849c-1.948-3.371-6.019-4.875-9.687-3.583
		c-6.236,2.198-12.674,3.919-19.135,5.117c-3.831,0.709-6.611,4.052-6.611,7.948l-0.029,13.742c0,0-0.004,0.001-0.017,0.001
		l-33.799-0.046v-13.697c0-3.897-2.78-7.239-6.611-7.948c-6.457-1.196-12.895-2.919-19.135-5.117c-0.884-0.31-1.79-0.46-2.685-0.46
		c-2.821,0-5.524,1.484-7.002,4.043l-6.906,11.867l-29.246-16.939l6.856-11.879c1.945-3.369,1.214-7.647-1.74-10.178
		c-5.001-4.288-9.713-9-14.003-14.006c-2.533-2.956-6.811-3.69-10.181-1.741l-11.944,6.842l-16.86-29.294l11.852-6.842
		c3.371-1.947,4.876-6.019,3.582-9.689c-2.199-6.233-3.919-12.67-5.115-19.13c-0.709-3.833-4.052-6.614-7.949-6.614l-13.743-0.047
		l0.046-33.797h13.697c3.897,0,7.24-2.781,7.949-6.613c1.195-6.464,2.917-12.9,5.114-19.127c1.296-3.67-0.209-7.745-3.581-9.69
		l-11.866-6.908l16.938-29.247l11.879,6.858c3.371,1.946,7.648,1.214,10.18-1.74c4.298-5.012,9.009-9.725,14.004-14.004
		c2.956-2.532,3.687-6.81,1.741-10.181l-6.841-11.942l29.294-16.859l6.842,11.849c1.948,3.371,6.019,4.875,9.689,3.582
		c6.233-2.198,12.671-3.919,19.129-5.114c3.833-0.709,6.614-4.052,6.614-7.949l0.046-13.744l33.799,0.047v13.697
		c0,3.898,2.781,7.24,6.614,7.949c6.464,1.195,12.9,2.917,19.126,5.114c3.669,1.293,7.745-0.209,9.689-3.581l6.909-11.868
		l29.245,16.94l-6.856,11.879c-1.947,3.371-1.214,7.649,1.741,10.18c4.993,4.277,9.705,8.99,14.007,14.006
		c2.532,2.951,6.807,3.683,10.179,1.738l11.942-6.841l16.859,29.296l-11.85,6.844c-3.369,1.947-4.874,6.018-3.581,9.688
		c2.197,6.232,3.917,12.668,5.112,19.129c0.709,3.832,4.053,6.613,7.949,6.613l13.743,0.047L342.887,333.74z"/>
	<path style="fill:#231F20;" d="M195.182,208.49c-59.732,0-108.328,48.596-108.328,108.328s48.596,108.328,108.328,108.328
		c27.554,0,53.812-10.353,73.936-29.154c3.262-3.047,3.436-8.163,0.388-11.427c-3.045-3.261-8.161-3.436-11.427-0.388
		c-17.119,15.993-39.456,24.8-62.898,24.8c-50.817,0-92.16-41.342-92.16-92.16s41.342-92.16,92.16-92.16s92.16,41.342,92.16,92.16
		c0,16.827-4.576,33.291-13.231,47.607c-2.311,3.821-1.085,8.791,2.736,11.101c3.815,2.308,8.789,1.087,11.1-2.735
		c10.182-16.842,15.564-36.197,15.564-55.974C303.51,257.085,254.915,208.49,195.182,208.49z"/>
	<path style="fill:#231F20;" d="M195.185,243.521h-0.211c-40.415,0.115-73.203,33.09-73.088,73.506
		c0.115,40.301,32.994,73.087,73.293,73.087h0.211c40.415-0.114,73.203-33.088,73.089-73.505
		C268.363,276.309,235.485,243.521,195.185,243.521z M195.345,373.946h-0.165c-31.41,0-57.035-25.555-57.125-56.965
		c-0.089-31.5,25.465-57.2,56.967-57.291h0.165c31.41,0,57.035,25.555,57.125,56.966C252.4,348.156,226.845,373.857,195.345,373.946
		z"/>
	<path style="fill:#231F20;" d="M195.182,294.045c-12.556,0-22.773,10.216-22.773,22.773s10.216,22.773,22.773,22.773
		c12.556,0,22.773-10.216,22.773-22.773S207.74,294.045,195.182,294.045z M195.182,323.422c-3.641,0-6.604-2.963-6.604-6.604
		s2.963-6.604,6.604-6.604c3.641,0,6.604,2.963,6.604,6.604S198.823,323.422,195.182,323.422z"/>
	<path style="fill:#231F20;" d="M455.791,77.746c12.556,0,22.773-10.216,22.773-22.773s-10.216-22.773-22.773-22.773
		s-22.773,10.216-22.773,22.773S443.235,77.746,455.791,77.746z M455.791,48.369c3.186,0,5.853,2.269,6.47,5.275
		c0.088,0.429,0.135,0.874,0.135,1.329c0,0.455-0.046,0.899-0.135,1.329c-0.617,3.006-3.284,5.275-6.47,5.275
		c-3.641,0-6.604-2.963-6.604-6.604C449.187,51.332,452.151,48.369,455.791,48.369z"/>
</g>
<g>
</g>
<g>
</g>
<g>
</g>
<g>
</g>
<g>
</g>
<g>
</g>
<g>
</g>
<g>
</g>
<g>
</g>
<g>
</g>
<g>
</g>
<g>
</g>
<g>
</g>
<g>
</g>
<g>
</g>
</svg>
