<svg width="180" height="180" viewBox="0 0 180 180" fill="none" xmlns="http://www.w3.org/2000/svg">
<path d="M59.7725 32.4814C69.0496 27.6192 79.3678 25.0803 89.8418 25.0825C100.316 25.0847 110.633 27.6279 119.908 32.494C129.183 37.3601 137.139 44.4038 143.094 53.0206C149.048 61.6375 152.823 71.5703 154.095 81.9669C155.366 92.3634 154.097 102.913 150.395 112.711C146.693 122.509 140.669 131.263 132.841 138.221C125.012 145.179 115.612 150.134 105.447 152.661C95.2824 155.188 84.6565 155.211 74.4809 152.728L77.6052 139.923C85.7093 141.901 94.1721 141.882 102.268 139.87C110.363 137.858 117.849 133.911 124.084 128.37C130.319 122.828 135.117 115.856 138.065 108.053C141.014 100.25 142.025 91.8473 141.012 83.5672C139.999 75.2871 136.993 67.3763 132.25 60.5136C127.508 53.6508 121.172 48.0411 113.785 44.1656C106.398 40.2901 98.1809 38.2646 89.8391 38.2628C81.4972 38.2611 73.2795 40.2831 65.891 44.1555L59.7725 32.4814Z" fill="#9B27F7"/>
<path d="M175.491 62.7903C180.326 78.1107 180.965 94.4476 177.339 110.099C173.714 125.75 165.958 140.142 154.879 151.776C143.8 163.41 129.803 171.86 114.348 176.245C98.8925 180.63 82.544 180.791 67.0057 176.709C51.4675 172.627 37.3082 164.453 26.0034 153.038C14.6985 141.623 6.66184 127.386 2.73074 111.809C-1.20037 96.2316 -0.882008 79.8853 3.65264 64.4732C8.18728 49.061 16.7723 35.147 28.513 24.181L40.995 37.5449C31.6444 46.2786 24.8071 57.3601 21.1955 69.6347C17.584 81.9094 17.3305 94.928 20.4613 107.334C23.5921 119.74 29.9928 131.079 38.9963 140.17C47.9998 149.261 59.2766 155.772 71.6517 159.022C84.0268 162.273 97.0473 162.146 109.356 158.653C121.665 155.161 132.813 148.431 141.636 139.165C150.46 129.9 156.637 118.437 159.525 105.972C162.412 93.5072 161.903 80.496 158.052 68.2945L175.491 62.7903Z" fill="#EFBF14"/>
<path d="M131.638 80.738C133.157 87.7238 132.901 94.9789 130.894 101.84C128.887 108.702 125.192 114.951 120.148 120.017C115.104 125.083 108.871 128.805 102.018 130.841C95.1653 132.878 87.9114 133.165 80.9191 131.677C73.9267 130.188 67.4188 126.971 61.9898 122.32C56.5609 117.669 52.384 111.731 49.8407 105.05C47.2973 98.3682 46.4687 91.1561 47.4304 84.072C48.3922 76.988 51.1136 70.2578 55.3462 64.4963L62.3657 69.6531C58.9948 74.2417 56.8274 79.6018 56.0614 85.2438C55.2955 90.8857 55.9554 96.6297 57.981 101.951C60.0066 107.272 63.3332 112.001 67.6569 115.705C71.9807 119.41 77.1638 121.972 82.7327 123.158C88.3016 124.343 94.0788 124.114 99.5366 122.492C104.994 120.87 109.959 117.906 113.976 113.872C117.993 109.837 120.936 104.86 122.534 99.395C124.133 93.9303 124.336 88.1522 123.127 82.5884L131.638 80.738Z" fill="#FF8BA9"/>
</svg>
